<svg width="380" height="220" viewBox="0 0 380 220" fill="none" xmlns="http://www.w3.org/2000/svg">
  <defs>
    <linearGradient id="aiCardBg" x1="0%" y1="0%" x2="100%" y2="100%">
      <stop offset="0%" stop-color="#FFFFFF" stop-opacity="0.06"/>
      <stop offset="100%" stop-color="#FFFFFF" stop-opacity="0.015"/>
    </linearGradient>
    <linearGradient id="aiIconBg" x1="0%" y1="0%" x2="100%" y2="100%">
      <stop offset="0%" stop-color="#8B5CF6"/>
      <stop offset="100%" stop-color="#C084FC"/>
    </linearGradient>
    <radialGradient id="aiGlow" cx="50%" cy="0%" r="70%">
      <stop offset="0%" stop-color="#8B5CF6" stop-opacity="0.25"/>
      <stop offset="100%" stop-color="#8B5CF6" stop-opacity="0"/>
    </radialGradient>
  </defs>
  <rect width="380" height="220" fill="#09090B"/>
  <circle cx="330" cy="10" r="120" fill="url(#aiGlow)"/>
  <rect x="1" y="1" width="378" height="218" rx="22" fill="url(#aiCardBg)" stroke="#FFFFFF" stroke-opacity="0.09"/>
  <rect x="1" y="1" width="378" height="1" fill="#FFFFFF" opacity="0.14"/>

  <rect x="28" y="28" width="52" height="52" rx="16" fill="url(#aiIconBg)"/>
  <circle cx="54" cy="54" r="10" fill="none" stroke="#FFFFFF" stroke-width="2"/>
  <circle cx="54" cy="54" r="3" fill="#FFFFFF"/>
  <circle cx="54" cy="41" r="2" fill="#FFFFFF"/>
  <circle cx="66" cy="54" r="2" fill="#FFFFFF"/>
  <circle cx="54" cy="67" r="2" fill="#FFFFFF"/>
  <circle cx="42" cy="54" r="2" fill="#FFFFFF"/>

  <text x="28" y="112" font-family="Helvetica, Arial, sans-serif" font-size="22" font-weight="700" fill="#FFFFFF">Artificial Intelligence</text>
  <text x="28" y="138" font-family="Helvetica, Arial, sans-serif" font-size="14" fill="#FFFFFF" fill-opacity="0.6">Designing intelligent systems that reason,</text>
  <text x="28" y="158" font-family="Helvetica, Arial, sans-serif" font-size="14" fill="#FFFFFF" fill-opacity="0.6">adapt and make decisions in real products.</text>

  <rect x="28" y="176" width="94" height="26" rx="13" fill="#FFFFFF" fill-opacity="0.05" stroke="#8B5CF6" stroke-opacity="0.4"/>
  <text x="75" y="193" text-anchor="middle" font-family="Helvetica, Arial, sans-serif" font-size="11" letter-spacing="1" fill="#C084FC">LLM &amp; AGENTS</text>
</svg>
