<svg width="380" height="220" viewBox="0 0 380 220" fill="none" xmlns="http://www.w3.org/2000/svg">
  <defs>
    <linearGradient id="auCardBg" x1="0%" y1="0%" x2="100%" y2="100%">
      <stop offset="0%" stop-color="#FFFFFF" stop-opacity="0.06"/>
      <stop offset="100%" stop-color="#FFFFFF" stop-opacity="0.015"/>
    </linearGradient>
    <linearGradient id="auIconBg" x1="0%" y1="0%" x2="100%" y2="100%">
      <stop offset="0%" stop-color="#A855F7"/>
      <stop offset="100%" stop-color="#8B5CF6"/>
    </linearGradient>
    <radialGradient id="auGlow" cx="50%" cy="0%" r="70%">
      <stop offset="0%" stop-color="#A855F7" stop-opacity="0.25"/>
      <stop offset="100%" stop-color="#A855F7" stop-opacity="0"/>
    </radialGradient>
  </defs>
  <rect width="380" height="220" fill="#09090B"/>
  <circle cx="330" cy="10" r="120" fill="url(#auGlow)"/>
  <rect x="1" y="1" width="378" height="218" rx="22" fill="url(#auCardBg)" stroke="#FFFFFF" stroke-opacity="0.09"/>
  <rect x="1" y="1" width="378" height="1" fill="#FFFFFF" opacity="0.14"/>

  <rect x="28" y="28" width="52" height="52" rx="16" fill="url(#auIconBg)"/>
  <circle cx="46" cy="46" r="6" fill="none" stroke="#FFFFFF" stroke-width="2"/>
  <circle cx="62" cy="62" r="6" fill="none" stroke="#FFFFFF" stroke-width="2"/>
  <path d="M50 50l8 8" stroke="#FFFFFF" stroke-width="2"/>
  <path d="M46 40v-4M46 52v4M40 46h-4M52 46h4" stroke="#FFFFFF" stroke-width="1.6" stroke-linecap="round"/>

  <text x="28" y="112" font-family="Helvetica, Arial, sans-serif" font-size="22" font-weight="700" fill="#FFFFFF">Automation</text>
  <text x="28" y="138" font-family="Helvetica, Arial, sans-serif" font-size="14" fill="#FFFFFF" fill-opacity="0.6">Turning manual workflows into reliable,</text>
  <text x="28" y="158" font-family="Helvetica, Arial, sans-serif" font-size="14" fill="#FFFFFF" fill-opacity="0.6">self-running pipelines that scale quietly.</text>

  <rect x="28" y="176" width="118" height="26" rx="13" fill="#FFFFFF" fill-opacity="0.05" stroke="#A855F7" stroke-opacity="0.4"/>
  <text x="87" y="193" text-anchor="middle" font-family="Helvetica, Arial, sans-serif" font-size="11" letter-spacing="1" fill="#C084FC">WORKFLOWS &amp; OPS</text>
</svg>
