<svg width="380" height="220" viewBox="0 0 380 220" fill="none" xmlns="http://www.w3.org/2000/svg">
  <defs>
    <linearGradient id="boCardBg" x1="0%" y1="0%" x2="100%" y2="100%">
      <stop offset="0%" stop-color="#FFFFFF" stop-opacity="0.06"/>
      <stop offset="100%" stop-color="#FFFFFF" stop-opacity="0.015"/>
    </linearGradient>
    <linearGradient id="boIconBg" x1="0%" y1="0%" x2="100%" y2="100%">
      <stop offset="0%" stop-color="#8B5CF6"/>
      <stop offset="100%" stop-color="#A855F7"/>
    </linearGradient>
    <radialGradient id="boGlow" cx="50%" cy="0%" r="70%">
      <stop offset="0%" stop-color="#8B5CF6" stop-opacity="0.25"/>
      <stop offset="100%" stop-color="#8B5CF6" stop-opacity="0"/>
    </radialGradient>
  </defs>
  <rect width="380" height="220" fill="#09090B"/>
  <circle cx="330" cy="10" r="120" fill="url(#boGlow)"/>
  <rect x="1" y="1" width="378" height="218" rx="22" fill="url(#boCardBg)" stroke="#FFFFFF" stroke-opacity="0.09"/>
  <rect x="1" y="1" width="378" height="1" fill="#FFFFFF" opacity="0.14"/>

  <rect x="28" y="28" width="52" height="52" rx="16" fill="url(#boIconBg)"/>
  <rect x="42" y="42" width="20" height="16" rx="4" fill="#FFFFFF"/>
  <circle cx="48" cy="50" r="1.6" fill="#8B5CF6"/>
  <circle cx="56" cy="50" r="1.6" fill="#8B5CF6"/>
  <rect x="50" y="36" width="4" height="6" fill="#FFFFFF"/>
  <circle cx="52" cy="35" r="2" fill="#FFFFFF"/>
  <path d="M40 58v4M64 58v4" stroke="#FFFFFF" stroke-width="2" stroke-linecap="round"/>

  <text x="28" y="112" font-family="Helvetica, Arial, sans-serif" font-size="22" font-weight="700" fill="#FFFFFF">Telegram Bots</text>
  <text x="28" y="138" font-family="Helvetica, Arial, sans-serif" font-size="14" fill="#FFFFFF" fill-opacity="0.6">Building conversational bots that automate</text>
  <text x="28" y="158" font-family="Helvetica, Arial, sans-serif" font-size="14" fill="#FFFFFF" fill-opacity="0.6">support, commerce and community at scale.</text>

  <rect x="28" y="176" width="128" height="26" rx="13" fill="#FFFFFF" fill-opacity="0.05" stroke="#8B5CF6" stroke-opacity="0.4"/>
  <text x="92" y="193" text-anchor="middle" font-family="Helvetica, Arial, sans-serif" font-size="11" letter-spacing="1" fill="#C084FC">BOT ENGINEERING</text>
</svg>
