<svg width="380" height="220" viewBox="0 0 380 220" fill="none" xmlns="http://www.w3.org/2000/svg">
  <defs>
    <linearGradient id="toCardBg" x1="0%" y1="0%" x2="100%" y2="100%">
      <stop offset="0%" stop-color="#FFFFFF" stop-opacity="0.06"/>
      <stop offset="100%" stop-color="#FFFFFF" stop-opacity="0.015"/>
    </linearGradient>
    <linearGradient id="toIconBg" x1="0%" y1="0%" x2="100%" y2="100%">
      <stop offset="0%" stop-color="#A855F7"/>
      <stop offset="100%" stop-color="#C084FC"/>
    </linearGradient>
    <radialGradient id="toGlow" cx="50%" cy="0%" r="70%">
      <stop offset="0%" stop-color="#A855F7" stop-opacity="0.25"/>
      <stop offset="100%" stop-color="#A855F7" stop-opacity="0"/>
    </radialGradient>
  </defs>
  <rect width="380" height="220" fill="#09090B"/>
  <circle cx="330" cy="10" r="120" fill="url(#toGlow)"/>
  <rect x="1" y="1" width="378" height="218" rx="22" fill="url(#toCardBg)" stroke="#FFFFFF" stroke-opacity="0.09"/>
  <rect x="1" y="1" width="378" height="1" fill="#FFFFFF" opacity="0.14"/>

  <rect x="28" y="28" width="52" height="52" rx="16" fill="url(#toIconBg)"/>
  <path d="M44 40l-8 14 8 14" stroke="#FFFFFF" stroke-width="2.2" fill="none" stroke-linecap="round" stroke-linejoin="round"/>
  <path d="M64 40l8 14-8 14" stroke="#FFFFFF" stroke-width="2.2" fill="none" stroke-linecap="round" stroke-linejoin="round"/>
  <path d="M57 38l-6 28" stroke="#FFFFFF" stroke-opacity="0.8" stroke-width="2" stroke-linecap="round"/>

  <text x="28" y="112" font-family="Helvetica, Arial, sans-serif" font-size="22" font-weight="700" fill="#FFFFFF">Developer Tools</text>
  <text x="28" y="138" font-family="Helvetica, Arial, sans-serif" font-size="14" fill="#FFFFFF" fill-opacity="0.6">Shipping small, sharp utilities that remove</text>
  <text x="28" y="158" font-family="Helvetica, Arial, sans-serif" font-size="14" fill="#FFFFFF" fill-opacity="0.6">friction from everyday engineering work.</text>

  <rect x="28" y="176" width="126" height="26" rx="13" fill="#FFFFFF" fill-opacity="0.05" stroke="#A855F7" stroke-opacity="0.4"/>
  <text x="91" y="193" text-anchor="middle" font-family="Helvetica, Arial, sans-serif" font-size="11" letter-spacing="1" fill="#C084FC">CLI &amp; LIBRARIES</text>
</svg>
